<?xml version="1.0" encoding="utf-8"?>
<!-- Generator: Adobe Illustrator 26.4.1, SVG Export Plug-In . SVG Version: 6.00 Build 0)  -->
<svg version="1.0" id="Capa_1" xmlns="http://www.w3.org/2000/svg" xmlns:xlink="http://www.w3.org/1999/xlink" x="0px" y="0px"
	 viewBox="0 0 342.9 109.8" enable-background="new 0 0 342.9 109.8" xml:space="preserve">
<g>
	<path fill="#FFFFFF" d="M151.7,63L151.7,63c-0.2-2.1-0.9-3.8-2.3-5c-1.3-1.3-2.9-1.9-4.8-1.9c-0.9,0-1.8,0.2-2.6,0.5
		c-0.8,0.3-1.5,0.8-2.1,1.4c-0.6,0.6-1.1,1.3-1.5,2.2c-0.4,0.9-0.6,1.8-0.7,2.8H151.7z M144.7,79.9c-2.2,0-4.1-0.4-5.9-1.1
		c-1.8-0.8-3.3-1.8-4.5-3.1c-1.2-1.3-2.2-2.8-2.9-4.6c-0.7-1.7-1-3.6-1-5.5c0-2,0.3-3.9,1-5.6c0.7-1.8,1.6-3.3,2.9-4.6
		c1.2-1.3,2.8-2.4,4.5-3.2c1.8-0.8,3.8-1.2,6-1.2c2.2,0,4.2,0.4,5.9,1.2c1.7,0.8,3.2,1.8,4.5,3.1c1.2,1.3,2.2,2.8,2.8,4.6
		c0.6,1.7,1,3.6,1,5.4c0,0.5,0,0.9,0,1.3c0,0.4-0.1,0.8-0.1,1.1h-21c0.1,1.1,0.4,2.1,0.8,2.9c0.4,0.9,1,1.6,1.6,2.2
		c0.7,0.6,1.4,1.1,2.2,1.4c0.8,0.3,1.7,0.5,2.6,0.5c1.4,0,2.7-0.3,3.9-1c1.2-0.7,2.1-1.6,2.5-2.7l6,1.7c-1,2.1-2.6,3.9-4.8,5.2
		C150.3,79.2,147.7,79.9,144.7,79.9z"/>
	<path fill="#FFFFFF" d="M179.3,57.6c-2.1,0-4,0.5-5.7,1.3c-1.7,0.8-2.9,2-3.6,3.6v16.9h-6.9V51.4h6.4v6c0.5-1,1.1-1.8,1.7-2.6
		c0.7-0.8,1.4-1.4,2.1-2c0.8-0.6,1.5-1,2.3-1.3c0.8-0.3,1.5-0.5,2.3-0.5c0.4,0,0.7,0,0.9,0c0.2,0,0.4,0,0.5,0.1V57.6z"/>
	<rect x="183.2" y="51.4" fill="#FFFFFF" width="6.9" height="27.9"/>
	<path fill="#FFFFFF" d="M209.5,73.8L209.5,73.8c0.7,0,1.3-0.1,2-0.3c0.7-0.2,1.3-0.6,1.9-1c0.6-0.4,1.1-0.9,1.6-1.5
		c0.5-0.6,0.8-1.2,1.1-1.9v-6.7c-0.3-0.8-0.7-1.5-1.2-2.2c-0.5-0.7-1.1-1.2-1.7-1.7c-0.6-0.5-1.3-0.9-2-1.1
		c-0.7-0.3-1.4-0.4-2.1-0.4c-1,0-2,0.2-2.9,0.7c-0.9,0.5-1.6,1.1-2.3,1.9c-0.6,0.8-1.1,1.7-1.5,2.7c-0.3,1-0.5,2.1-0.5,3.2
		c0,1.2,0.2,2.3,0.6,3.2c0.4,1,0.9,1.9,1.6,2.6c0.7,0.7,1.4,1.3,2.4,1.8C207.3,73.6,208.4,73.8,209.5,73.8 M207.6,79.9
		c-1.9,0-3.6-0.4-5.2-1.1c-1.6-0.7-3-1.8-4.1-3.1c-1.1-1.3-2-2.9-2.7-4.6c-0.6-1.8-1-3.7-1-5.7c0-2,0.3-3.9,0.9-5.6
		c0.6-1.7,1.4-3.3,2.5-4.6c1.1-1.3,2.3-2.3,3.8-3.1c1.5-0.7,3.1-1.1,4.9-1.1c2,0,3.8,0.5,5.4,1.5c1.6,1,2.9,2.3,3.8,3.9V40h6.9v31.2
		c0,0.7,0.1,1.3,0.4,1.6c0.2,0.3,0.7,0.5,1.2,0.5v6.1c-1.2,0.2-2.2,0.4-3,0.4c-1.2,0-2.3-0.3-3.1-1c-0.8-0.6-1.2-1.5-1.3-2.5
		l-0.2-1.8c-1,1.8-2.4,3.1-4.1,4C211.3,79.4,209.5,79.9,207.6,79.9z"/>
	<rect x="229.8" y="51.4" fill="#FFFFFF" width="6.9" height="27.9"/>
	<path fill="#FFFFFF" d="M252.4,74.7L252.4,74.7c1.2,0,2.3-0.2,3.3-0.6c1.1-0.4,1.9-1,2.5-1.7c0.8-0.6,1.1-1.3,1.1-2v-3.2
		c-0.8-0.3-1.7-0.6-2.7-0.8c-1-0.2-1.9-0.3-2.8-0.3c-1.8,0-3.3,0.4-4.4,1.3c-1.1,0.8-1.7,1.9-1.7,3.2c0,1.2,0.4,2.2,1.4,3
		C250,74.3,251.1,74.7,252.4,74.7 M250.5,79.9c-1.3,0-2.5-0.2-3.7-0.7c-1.1-0.4-2.1-1.1-3-1.9c-0.8-0.8-1.5-1.7-1.9-2.8
		c-0.5-1.1-0.7-2.2-0.7-3.5c0-1.3,0.3-2.5,0.9-3.7c0.6-1.1,1.4-2.1,2.4-2.9c1-0.8,2.2-1.4,3.7-1.8c1.4-0.4,3-0.7,4.7-0.7
		c1.2,0,2.4,0.1,3.6,0.3c1.2,0.2,2.2,0.5,3.1,0.9v-1.6c0-1.8-0.5-3.3-1.5-4.3c-1-1-2.5-1.5-4.5-1.5c-1.4,0-2.9,0.3-4.2,0.8
		c-1.4,0.5-2.8,1.3-4.3,2.3l-2.1-4.5c3.5-2.4,7.3-3.6,11.3-3.6c3.9,0,6.9,1,9.1,3c2.2,2,3.2,4.8,3.2,8.6v8.7c0,0.7,0.1,1.3,0.4,1.6
		s0.7,0.5,1.3,0.5v6.1c-1.2,0.2-2.2,0.4-3.1,0.4c-1.3,0-2.3-0.3-3-0.9c-0.7-0.6-1.2-1.4-1.3-2.4l-0.2-1.5c-1.2,1.6-2.7,2.9-4.4,3.7
		C254.3,79.5,252.4,79.9,250.5,79.9z"/>
	<rect x="183.2" y="40" fill="#FFFFFF" width="6.9" height="7.1"/>
	<rect x="229.8" y="40" fill="#FFFFFF" width="6.9" height="7.1"/>
	<polygon fill="#FFFFFF" points="118.3,79.3 118.3,54.3 108.8,73 104.9,73 95.4,54.3 95.4,79.3 88.3,79.3 88.3,41.5 95.9,41.5 
		106.8,63 117.8,41.5 125.4,41.5 125.4,79.3 	"/>
	<path fill="#FFFFFF" d="M99.8,27.9L99.8,27.9c-0.1-0.6-0.2-1.2-0.4-1.7c-0.2-0.5-0.6-0.9-0.9-1.3c-0.4-0.4-0.8-0.6-1.3-0.8
		c-0.5-0.2-1-0.3-1.6-0.3c-0.6,0-1.1,0.1-1.6,0.3c-0.5,0.2-0.9,0.5-1.3,0.8c-0.4,0.4-0.7,0.8-0.9,1.3c-0.2,0.5-0.4,1.1-0.4,1.7H99.8
		z M95.5,36.4c-1.1,0-2.1-0.2-3-0.6c-0.9-0.4-1.7-0.9-2.3-1.6c-0.6-0.7-1.1-1.5-1.5-2.4c-0.3-0.9-0.5-1.9-0.5-2.9c0-1,0.2-2,0.5-2.9
		c0.3-0.9,0.8-1.7,1.5-2.4c0.6-0.7,1.4-1.2,2.3-1.6c0.9-0.4,1.9-0.6,3-0.6c1.1,0,2.1,0.2,3,0.6c0.9,0.4,1.6,0.9,2.3,1.6
		c0.6,0.7,1.1,1.4,1.4,2.3c0.3,0.9,0.5,1.8,0.5,2.8c0,0.2,0,0.4,0,0.6c0,0.2,0,0.4,0,0.5H91.4c0.1,0.6,0.2,1.2,0.4,1.7
		c0.2,0.5,0.6,1,0.9,1.3c0.4,0.4,0.8,0.7,1.3,0.9c0.5,0.2,1,0.3,1.5,0.3c0.4,0,0.8,0,1.2-0.2c0.4-0.1,0.7-0.2,1.1-0.4
		c0.3-0.2,0.6-0.4,0.9-0.7c0.3-0.3,0.4-0.6,0.6-0.9l2.5,0.7c-0.5,1.1-1.3,2-2.4,2.7C98.3,36.1,97,36.4,95.5,36.4z"/>
	<path fill="#FFFFFF" d="M104.7,16.4h2.9V32c0,0.5,0.1,0.9,0.4,1.3c0.3,0.3,0.6,0.5,1.1,0.5c0.2,0,0.4,0,0.7-0.1
		c0.3-0.1,0.5-0.2,0.7-0.2l0.4,2.4c-0.4,0.2-0.9,0.4-1.5,0.5c-0.6,0.1-1.1,0.2-1.6,0.2c-1,0-1.8-0.3-2.4-0.9
		c-0.6-0.6-0.8-1.4-0.8-2.4V16.4z"/>
	<polygon fill="#FFFFFF" points="171.6,99.2 172,97.2 173.2,97.2 172.8,99.2 	"/>
	<polygon fill="#FFFFFF" points="174.7,99.2 175.2,97.2 176.4,97.2 176,99.2 	"/>
	<polygon fill="#FFFFFF" points="177.9,99.2 178.3,97.2 179.6,97.2 179.2,99.2 	"/>
	<path fill="#FFFFFF" d="M186,98.7c-0.1,0-0.2,0.1-0.4,0.2c-0.2,0.1-0.3,0.1-0.5,0.2c-0.2,0.1-0.4,0.1-0.6,0.2
		c-0.2,0-0.5,0.1-0.7,0.1c-0.5,0-1-0.2-1.3-0.5c-0.3-0.3-0.4-0.8-0.3-1.4l1.3-6.2h-1.2l0.3-1.2h1.2l0.6-3.1h1.5l-0.6,3.1h2l-0.2,1.2
		h-2l-1.2,5.7c0,0.3,0,0.6,0.2,0.7c0.2,0.2,0.4,0.2,0.6,0.2c0.3,0,0.6-0.1,0.8-0.2c0.3-0.1,0.4-0.2,0.6-0.2L186,98.7z"/>
	<path fill="#FFFFFF" d="M195,94L195,94c0.1-0.4,0-0.8-0.1-1.2c-0.1-0.4-0.3-0.7-0.5-0.9c-0.2-0.3-0.5-0.5-0.8-0.6
		c-0.3-0.1-0.7-0.2-1.1-0.2c-0.4,0-0.8,0.1-1.2,0.2c-0.4,0.1-0.7,0.3-1.1,0.6c-0.3,0.3-0.6,0.6-0.8,0.9c-0.2,0.4-0.4,0.8-0.5,1.2
		H195z M190.8,99.4c-0.7,0-1.3-0.1-1.8-0.4c-0.5-0.3-0.9-0.6-1.2-1c-0.3-0.4-0.5-0.9-0.6-1.5c-0.1-0.6-0.1-1.2,0-1.8
		c0.1-0.6,0.4-1.3,0.7-1.8c0.3-0.6,0.8-1.1,1.3-1.5c0.5-0.4,1-0.8,1.7-1c0.6-0.2,1.3-0.4,1.9-0.4c0.7,0,1.3,0.1,1.8,0.4
		c0.5,0.3,0.9,0.6,1.2,1c0.3,0.4,0.5,0.9,0.6,1.5c0.1,0.6,0.1,1.2-0.1,1.8c0,0.1-0.1,0.2-0.1,0.3c0,0.1-0.1,0.2-0.1,0.2h-7.4
		c-0.1,0.5,0,0.9,0,1.2c0.1,0.4,0.2,0.7,0.5,1c0.2,0.3,0.5,0.5,0.8,0.6c0.3,0.2,0.7,0.2,1.1,0.2c0.3,0,0.5,0,0.8-0.1
		c0.3-0.1,0.5-0.2,0.8-0.3c0.3-0.1,0.5-0.3,0.7-0.5c0.2-0.2,0.4-0.4,0.5-0.6l1.2,0.4c-0.2,0.3-0.5,0.7-0.8,0.9
		c-0.3,0.3-0.7,0.5-1,0.7c-0.4,0.2-0.8,0.4-1.2,0.5C191.7,99.3,191.2,99.4,190.8,99.4z"/>
	<path fill="#FFFFFF" d="M203.5,99.4c-0.9,0-1.6-0.3-1.9-1c-0.3-0.6-0.4-1.6-0.1-2.9l1.1-5.5h1.5l-1.1,5.2c-0.4,1.9,0,2.8,1.3,2.8
		c0.6,0,1.2-0.2,1.9-0.6c0.6-0.4,1.1-1,1.5-1.7l1.2-5.7h1.5l-1.5,7.3c-0.1,0.4,0,0.5,0.4,0.6l-0.3,1.3c-0.2,0-0.3,0-0.4,0
		c-0.1,0-0.2,0-0.3,0c-0.3,0-0.5-0.1-0.7-0.3c-0.2-0.2-0.2-0.4-0.2-0.7l0.2-1.1c-0.5,0.7-1.2,1.2-1.9,1.6
		C205,99.2,204.3,99.4,203.5,99.4"/>
	<path fill="#FFFFFF" d="M215.2,98L215.2,98c0.4,0,0.9-0.1,1.3-0.3c0.4-0.2,0.8-0.4,1.1-0.8c0.3-0.3,0.6-0.7,0.9-1.1
		c0.2-0.4,0.4-0.8,0.5-1.3c0.1-0.4,0.1-0.9,0.1-1.3c-0.1-0.4-0.2-0.8-0.4-1.1c-0.2-0.3-0.4-0.6-0.8-0.8c-0.3-0.2-0.7-0.3-1.1-0.3
		c-0.3,0-0.6,0.1-0.9,0.2c-0.3,0.1-0.6,0.3-0.9,0.5c-0.3,0.2-0.5,0.4-0.8,0.7c-0.2,0.3-0.5,0.5-0.7,0.8l-0.6,2.7
		c0,0.3,0.1,0.6,0.2,0.8c0.1,0.2,0.3,0.5,0.5,0.6c0.2,0.2,0.5,0.3,0.7,0.4C214.7,98,214.9,98,215.2,98 M215.3,99.4
		c-0.7,0-1.3-0.2-1.8-0.5c-0.5-0.4-0.9-0.8-1.1-1.4l-0.4,1.7h-1.3l2.7-12.8h1.5l-1.1,5.5c0.5-0.6,1.1-1.1,1.7-1.4
		c0.6-0.4,1.3-0.5,2-0.5c0.6,0,1.1,0.1,1.6,0.4c0.4,0.3,0.8,0.6,1,1.1c0.3,0.4,0.4,0.9,0.5,1.5c0.1,0.6,0,1.2-0.1,1.8
		c-0.1,0.6-0.4,1.2-0.7,1.8c-0.3,0.6-0.7,1.1-1.2,1.5c-0.5,0.4-1,0.8-1.6,1C216.5,99.2,215.9,99.4,215.3,99.4z"/>
	<path fill="#FFFFFF" d="M223.4,88.3L223.4,88.3l0.4-1.9h1.5l-0.4,1.9H223.4z M221.1,99.2l1.9-9.2h1.5l-1.9,9.2H221.1z"/>
	<path fill="#FFFFFF" d="M225.2,94.6c0.1-0.6,0.4-1.3,0.7-1.8c0.3-0.6,0.7-1.1,1.2-1.5c0.5-0.4,1-0.8,1.6-1c0.6-0.2,1.2-0.4,1.9-0.4
		c0.9,0,1.6,0.2,2.2,0.6c0.6,0.4,0.9,0.9,1.1,1.6l-1.6,0.5c-0.1-0.4-0.4-0.8-0.7-1c-0.4-0.2-0.8-0.4-1.3-0.4c-0.4,0-0.8,0.1-1.2,0.3
		c-0.4,0.2-0.8,0.4-1.1,0.7c-0.3,0.3-0.6,0.7-0.8,1.1c-0.2,0.4-0.4,0.9-0.5,1.3c-0.1,0.5-0.1,0.9,0,1.4c0.1,0.4,0.2,0.8,0.4,1.1
		c0.2,0.3,0.5,0.6,0.8,0.7c0.3,0.2,0.7,0.3,1.1,0.3c0.3,0,0.5,0,0.8-0.1c0.3-0.1,0.5-0.2,0.8-0.3c0.2-0.1,0.5-0.3,0.6-0.5
		c0.2-0.2,0.3-0.4,0.5-0.5L233,97c-0.2,0.3-0.5,0.7-0.8,0.9c-0.3,0.3-0.6,0.5-1,0.7c-0.4,0.2-0.8,0.4-1.2,0.5
		c-0.4,0.1-0.9,0.2-1.3,0.2c-0.7,0-1.3-0.1-1.8-0.4c-0.5-0.3-0.9-0.6-1.2-1c-0.3-0.4-0.5-0.9-0.6-1.5C225,95.8,225,95.2,225.2,94.6"
		/>
	<path fill="#FFFFFF" d="M236.9,98.2L236.9,98.2c0.5,0,1.1-0.1,1.6-0.3c0.5-0.2,0.9-0.5,1.2-0.8c0.3-0.2,0.4-0.5,0.5-0.7l0.3-1.4
		c-0.7-0.3-1.4-0.4-2.2-0.4c-0.8,0-1.4,0.2-1.9,0.5c-0.5,0.3-0.9,0.8-1,1.3c-0.1,0.3-0.1,0.5,0,0.7c0,0.2,0.1,0.4,0.3,0.6
		c0.1,0.2,0.3,0.3,0.5,0.4C236.4,98.1,236.6,98.2,236.9,98.2 M236.3,99.4c-0.4,0-0.8-0.1-1.1-0.2c-0.3-0.1-0.6-0.4-0.8-0.6
		c-0.2-0.3-0.4-0.6-0.4-0.9c-0.1-0.3-0.1-0.7,0-1.1c0.1-0.4,0.3-0.8,0.5-1.2c0.3-0.3,0.6-0.6,1-0.9c0.4-0.2,0.8-0.4,1.3-0.6
		c0.5-0.1,1-0.2,1.6-0.2c0.4,0,0.9,0,1.3,0.1c0.4,0.1,0.8,0.2,1.1,0.3l0.2-0.7c0.2-0.8,0.1-1.3-0.2-1.8c-0.3-0.4-0.9-0.6-1.6-0.6
		c-0.9,0-1.9,0.4-3.1,1.1l-0.3-1c1.3-0.8,2.6-1.2,3.7-1.2c1.2,0,2,0.3,2.5,1c0.5,0.6,0.7,1.6,0.4,2.7l-0.8,3.7
		c-0.1,0.4,0,0.5,0.4,0.6l-0.3,1.3c-0.2,0-0.3,0-0.4,0.1c-0.1,0-0.2,0-0.3,0c-0.3,0-0.5-0.1-0.7-0.3c-0.1-0.2-0.2-0.4-0.2-0.7
		l0.1-0.7c-0.5,0.6-1.1,1-1.8,1.3C237.6,99.2,237,99.4,236.3,99.4z"/>
	<path fill="#FFFFFF" d="M244.4,95L244.4,95l1.7-8.4h1.5l-1.7,8.4H244.4z M243.5,99.2l0.5-2.2h1.5l-0.5,2.2H243.5z"/>
	<path fill="#FFFFFF" d="M73.5,79.3H26.4c-3.9,0-7.1-3.3-7.1-7.3l0-48.4c0-4,3.2-7.3,7.1-7.3h47.1c3.9,0,7.1,3.3,7.1,7.3V72
		C80.6,76.1,77.4,79.3,73.5,79.3"/>
	<path fill="#F19C1A" d="M28.4,62c0.4-0.4,0.6-1.5,0.6-3.1V34.9c0-1.7-0.2-2.7-0.6-3.1c-0.4-0.4-1.5-0.6-3.2-0.6h-2.1v-4.6h18.1
		l8.7,26.3l9.6-26.3h20.1v-3c0-3.4-2.7-6.2-6.1-6.2H26.4c-3.3,0-6.1,2.8-6.1,6.2v39h4.8C26.9,62.6,28,62.4,28.4,62"/>
	<path fill="#EA7700" d="M71.4,31.8c-0.4,0.4-0.6,1.5-0.6,3.1v23.9c0,1.6,0.2,2.7,0.6,3.1c0.4,0.4,1.5,0.7,3.2,0.7h2.2v4.6h-20v-4.6
		h2.6c1.7,0,2.8-0.2,3.2-0.6c0.4-0.4,0.6-1.5,0.6-3.1V32.6L50.7,67.2h-3.8L35.1,31.9v26.9c0,1.7,0.2,2.7,0.6,3.1
		c0.4,0.4,1.5,0.6,3.2,0.6h2.3v4.6H20.4V72c0,3.4,2.7,6.2,6.1,6.2h47.1c3.3,0,6.1-2.8,6.1-6.2V31.2h-4.9
		C72.9,31.2,71.8,31.4,71.4,31.8"/>
	<path fill="#FFFFFF" d="M298.1,79.3h-6.9V63.7c0-2.2-0.4-3.9-1.1-4.9c-0.8-1-1.8-1.5-3.2-1.5c-0.7,0-1.4,0.1-2.1,0.4
		c-0.7,0.3-1.4,0.7-2,1.2c-0.6,0.5-1.2,1.1-1.7,1.8c-0.5,0.7-0.9,1.5-1.1,2.3v16.3h-6.9V51.4h6.3v5.2c1-1.8,2.5-3.2,4.4-4.2
		c1.9-1,4-1.5,6.4-1.5c1.7,0,3.1,0.3,4.1,1c1.1,0.6,1.9,1.5,2.5,2.5c0.6,1,1,2.2,1.2,3.5c0.2,1.3,0.3,2.6,0.3,4V79.3z"/>
	<path fill="#FFFFFF" d="M309.6,65.4L309.6,65.4c0,1.2,0.2,2.4,0.5,3.4c0.4,1,0.9,1.9,1.5,2.6c0.6,0.7,1.4,1.3,2.3,1.7
		c0.9,0.4,1.8,0.6,2.8,0.6c1,0,1.9-0.2,2.8-0.6c0.9-0.4,1.6-1,2.3-1.7c0.6-0.7,1.1-1.6,1.5-2.7c0.4-1,0.5-2.2,0.5-3.4
		c0-1.2-0.2-2.3-0.5-3.4c-0.4-1-0.9-1.9-1.5-2.7c-0.6-0.7-1.4-1.3-2.3-1.7c-0.9-0.4-1.8-0.6-2.8-0.6c-1,0-1.9,0.2-2.8,0.6
		c-0.9,0.4-1.6,1-2.3,1.8c-0.6,0.7-1.1,1.6-1.5,2.7C309.7,63.1,309.6,64.2,309.6,65.4 M316.7,79.9c-2.2,0-4.2-0.4-6-1.2
		c-1.8-0.8-3.3-1.8-4.5-3.2c-1.2-1.3-2.2-2.9-2.8-4.6c-0.7-1.7-1-3.6-1-5.5c0-2,0.3-3.8,1-5.5c0.7-1.7,1.6-3.3,2.8-4.6
		c1.2-1.3,2.7-2.4,4.5-3.2c1.8-0.8,3.8-1.2,6-1.2c2.2,0,4.2,0.4,5.9,1.2c1.7,0.8,3.2,1.8,4.5,3.2c1.2,1.3,2.2,2.9,2.8,4.6
		c0.7,1.7,1,3.6,1,5.5c0,1.9-0.3,3.7-1,5.5c-0.7,1.7-1.6,3.3-2.8,4.6c-1.2,1.3-2.7,2.4-4.5,3.2C320.9,79.5,318.9,79.9,316.7,79.9z"
		/>
</g>
</svg>
